<?xml version="1.0" encoding="UTF-8" standalone="no"?>
<!DOCTYPE svg PUBLIC "-//W3C//DTD SVG 1.1//EN" "http://www.w3.org/Graphics/SVG/1.1/DTD/svg11.dtd">
<svg version="1.1" xmlns="http://www.w3.org/2000/svg" xmlns:xlink="http://www.w3.org/1999/xlink" preserveAspectRatio="xMidYMid meet" viewBox="0 0 640 640" width="640" height="640"><defs><path d="M421.33 21.33C400.75 21.33 384 38.08 384 58.67C384 83.2 384 279.47 384 304C384 324.59 400.75 341.33 421.33 341.33C426.67 341.33 469.33 341.33 474.67 341.33C495.25 341.33 512 324.59 512 304C512 279.47 512 83.2 512 58.67C512 38.08 495.25 21.33 474.67 21.33C464 21.33 426.67 21.33 421.33 21.33Z" id="aV4yCz6Iw"></path><path d="M109.21 16C67.61 16 32.19 45.87 25.15 86.83C22.76 100.69 3.65 211.63 1.26 225.49C-7.7 277.76 32.41 325.33 85.31 325.33C95.38 325.33 175.94 325.33 186.01 325.33C186.01 325.33 170.01 357.33 170.01 410.67C170.01 474.67 218.01 496 239.34 496C260.67 496 271.34 485.33 271.34 432C271.34 381.31 320.43 340.52 352 319.51C352 293.08 352 81.66 352 55.23C317.85 39.42 249.47 16 143.34 16C136.51 16 116.03 16 109.21 16Z" id="b5BZI9Utad"></path></defs><g><g><g><use xlink:href="#aV4yCz6Iw" opacity="1" fill="#ffffff" fill-opacity="1"></use><g><use xlink:href="#aV4yCz6Iw" opacity="1" fill-opacity="0" stroke="#000000" stroke-width="1" stroke-opacity="0"></use></g></g><g><use xlink:href="#b5BZI9Utad" opacity="1" fill="#ffffff" fill-opacity="1"></use><g><use xlink:href="#b5BZI9Utad" opacity="1" fill-opacity="0" stroke="#000000" stroke-width="1" stroke-opacity="0"></use></g></g></g></g></svg>