<?xml version="1.0" encoding="UTF-8" standalone="no"?>
<!DOCTYPE svg PUBLIC "-//W3C//DTD SVG 1.1//EN" "http://www.w3.org/Graphics/SVG/1.1/DTD/svg11.dtd">
<svg version="1.1" xmlns="http://www.w3.org/2000/svg" xmlns:xlink="http://www.w3.org/1999/xlink" preserveAspectRatio="xMidYMid meet" viewBox="0 0 640 640" width="640" height="640"><defs><path d="M454.83 420.89C461.39 387.36 513.88 119.13 520.44 85.6C524.25 66.15 519.03 46 506.07 30.02C493.13 14.06 473.59 3.71 452.24 1.51C430.89 -0.69 409.65 5.46 393.73 18.45C377.78 31.45 368.56 50.12 368.33 69.93C367.92 104.09 364.62 377.39 364.2 411.55C363.96 433.48 381.92 452.21 405.56 454.64C429.2 457.08 450.61 442.4 454.83 420.89Z" id="cfRmuaxFY"></path><path d="M348.86 517.77C345.95 545.97 366.46 571.18 394.66 574.09C422.87 576.99 448.08 556.49 450.99 528.29C453.89 500.08 433.39 474.87 405.18 471.96C376.98 469.06 351.76 489.56 348.86 517.77Z" id="h12OcUclyu"></path><path d="M315.52 460.08C316.63 425.31 325.5 147.15 326.61 112.39C327.26 92.22 319.51 72.71 305.27 58.57C291.04 44.45 271.58 36.98 251.64 37.99C231.71 39.01 213.11 48.41 200.38 63.9C187.64 79.42 181.91 99.61 184.6 119.61C189.23 154.08 226.28 429.9 230.91 464.38C233.89 486.51 253.14 502.66 275.21 501.54C297.28 500.41 314.79 482.39 315.52 460.08Z" id="c2u99g8wiC"></path><path d="M239.77 557.11C237.14 582.66 255.46 605.48 280.71 608.08C305.95 610.69 328.55 592.08 331.18 566.52C333.81 540.96 315.49 518.14 290.24 515.54C265 512.94 242.4 531.55 239.77 557.11Z" id="a1zfojrx0Y"></path></defs><g><g><g><use xlink:href="#cfRmuaxFY" opacity="1" fill="#000000" fill-opacity="1"></use><g><use xlink:href="#cfRmuaxFY" opacity="1" fill-opacity="0" stroke="#000000" stroke-width="1" stroke-opacity="0"></use></g></g><g><use xlink:href="#h12OcUclyu" opacity="1" fill="#000000" fill-opacity="1"></use><g><use xlink:href="#h12OcUclyu" opacity="1" fill-opacity="0" stroke="#000000" stroke-width="1" stroke-opacity="0"></use></g></g><g><use xlink:href="#c2u99g8wiC" opacity="1" fill="#000000" fill-opacity="1"></use><g><use xlink:href="#c2u99g8wiC" opacity="1" fill-opacity="0" stroke="#000000" stroke-width="1" stroke-opacity="0"></use></g></g><g><use xlink:href="#a1zfojrx0Y" opacity="1" fill="#000000" fill-opacity="1"></use><g><use xlink:href="#a1zfojrx0Y" opacity="1" fill-opacity="0" stroke="#000000" stroke-width="1" stroke-opacity="0"></use></g></g></g></g></svg>