<svg xmlns="http://www.w3.org/2000/svg" width="1000" height="1000" viewBox="0 0 1000 1000">
  <defs>
    <!-- <style>
      .cls-1 {
        fill-rule: evenodd;
      }
    </style> -->
  </defs>
  <path id="HAHA" class="cls-1" d="M95.986,181.179q-1.155,39.285,1.155,85.887t9.244,95.515q6.931,48.925,19.257,89.353t31.581,66.629q19.245,26.2,46.217,26.96,24.644,0.777,39.67-8.858A68.591,68.591,0,0,0,266.6,511.631a106.261,106.261,0,0,0,11.554-34.663,211.842,211.842,0,0,0,2.7-37.744,334.7,334.7,0,0,0-2.311-33.892q-1.932-15.4-3.466-23.879-1.553-6.933,5.392-12.325,6.156-3.844,10.784-2.7a22.15,22.15,0,0,1,8.473,4.237q5.379,3.087,3.851,11.554-1.553,6.933-4.236,21.183a264.1,264.1,0,0,0-3.852,31.582,277.907,277.907,0,0,0,0,35.818,121.217,121.217,0,0,0,6.933,34.277,67.309,67.309,0,0,0,17.331,26.575q11.555,10.8,31.582,13.1,35.421,3.846,59.7-22.723t38.9-70.866q14.624-44.286,20.8-100.137a997.921,997.921,0,0,0,6.162-109.381q0-53.527-5.777-98.6t-14.25-68.94Q446.844,46.38,430.289,30.2,413.716,14.028,394.856,9.791A58.922,58.922,0,0,0,357.5,13.642Q339.01,21.73,324.375,41.758A104.629,104.629,0,0,0,308.969,74.11,246.107,246.107,0,0,0,298.955,141.9v20.8q0,6.933-4.621,10.014-3.864,3.087-6.933,1.541a10.009,10.009,0,0,1-4.622-4.622,11.236,11.236,0,0,1-2.31-6.933q0-38.508-4.622-68.555T260.056,44.069q-11.175-20.021-30.041-28.886-18.883-8.846-46.6-5.777-26.2,3.863-42.366,20.8A124.165,124.165,0,0,0,116.4,66.792q-8.486,19.642-11.554,36.2-3.087,16.573-3.851,18.872Q97.129,141.907,95.986,181.179Zm797.619,50.069q-10.8-70.084-33.507-119.78Q837.369,61.785,802.326,34.44,767.267,7.107,718.751,7.1A156.371,156.371,0,0,0,634.79,30.974Q596.264,54.859,569.7,103.38T530.416,225.47q-12.71,73.569-6.547,172.929,2.31,36.216,11.554,63.934t22.724,46.217q13.467,18.486,30.041,27.73,16.554,9.243,33.507,9.243,20.8,0,35.818-10.013a81.653,81.653,0,0,0,24.649-25.805,149.45,149.45,0,0,0,15.406-35.048,319.527,319.527,0,0,0,8.858-36.973c0.506-3.082,2.311-4.49,5.392-4.237s4.875,1.673,5.392,4.237a284.774,284.774,0,0,0,7.318,39.284,116.943,116.943,0,0,0,15.02,34.663,79.9,79.9,0,0,0,25.8,25.034q15.779,9.64,39.669,9.629,43.906,0,71.637-40.825t27.73-117.854Q904.389,301.356,893.605,231.248Zm-191.03,9.628q6.931-8.845,13.095-11.939,6.156-3.069,11.554-1.541a27.5,27.5,0,0,1,10.014,5.392q10.777,9.243,20.027,33.122-13.107-7.69-25.42-8.473a105.32,105.32,0,0,0-22.338.771,77.273,77.273,0,0,0-21.568,7.7Q695.631,249.734,702.575,240.876ZM184.665,692.134q-0.951,32.365.952,70.758t7.615,78.69A487.213,487.213,0,0,0,209.1,915.2q10.145,33.316,26.019,54.893,15.855,21.582,38.076,22.211,20.3,0.639,32.681-7.3a56.51,56.51,0,0,0,19.356-20.624,87.546,87.546,0,0,0,9.519-28.557,174.624,174.624,0,0,0,2.221-31.1,276.024,276.024,0,0,0-1.9-27.923q-1.591-12.687-2.856-19.672-1.28-5.712,4.442-10.154,5.073-3.168,8.885-2.221a18.251,18.251,0,0,1,6.98,3.49q4.432,2.544,3.173,9.519-1.278,5.712-3.49,17.452a217.888,217.888,0,0,0-3.173,26.018,228.73,228.73,0,0,0,0,29.509,99.909,99.909,0,0,0,5.711,28.24,55.459,55.459,0,0,0,14.279,21.893q9.519,8.9,26.018,10.788,29.183,3.168,49.182-18.72t32.047-58.383q12.046-36.484,17.134-82.5a822.141,822.141,0,0,0,5.077-90.113,641.176,641.176,0,0,0-4.76-81.228q-4.76-37.124-11.74-56.8-8.254-22.845-21.893-36.172-13.654-13.326-29.192-16.817a48.545,48.545,0,0,0-30.778,3.173q-15.229,6.664-27.288,23.163a86.206,86.206,0,0,0-12.692,26.653,202.711,202.711,0,0,0-8.249,55.845V676.9q0,5.712-3.808,8.25-3.183,2.543-5.711,1.269a8.24,8.24,0,0,1-3.808-3.808,9.253,9.253,0,0,1-1.9-5.711,374.653,374.653,0,0,0-3.807-56.479q-3.808-24.75-13.009-41.249t-24.75-23.8q-15.556-7.288-38.393-4.76-21.58,3.183-34.9,17.134A102.3,102.3,0,0,0,201.482,597.9a140.888,140.888,0,0,0-9.519,29.826q-2.542,13.653-3.173,15.547Q185.607,659.781,184.665,692.134Zm657.118,41.249q-8.894-57.738-27.605-98.68t-47.6-63.459Q737.7,548.725,697.73,548.715a128.824,128.824,0,0,0-69.172,19.673q-31.738,19.677-53.623,59.652T542.57,728.624q-10.47,60.609-5.394,142.467,1.9,29.837,9.519,52.671t18.721,38.076q11.1,15.231,24.749,22.846A56.08,56.08,0,0,0,617.77,992.3q17.135,0,29.509-8.25a67.265,67.265,0,0,0,20.307-21.259,123.1,123.1,0,0,0,12.692-28.874,263.3,263.3,0,0,0,7.3-30.461c0.416-2.538,1.9-3.7,4.442-3.49s4.016,1.378,4.442,3.49a234.6,234.6,0,0,0,6.029,32.365,96.332,96.332,0,0,0,12.375,28.557A65.815,65.815,0,0,0,736.123,985q13,7.943,32.681,7.933,36.173,0,59.018-33.634t22.846-97.093Q850.668,791.142,841.783,733.383ZM684.4,741.316q5.712-7.289,10.788-9.837a12.963,12.963,0,0,1,9.519-1.269,22.642,22.642,0,0,1,8.25,4.442q8.88,7.615,16.5,27.288-10.8-6.336-20.941-6.98a86.758,86.758,0,0,0-18.4.634,63.641,63.641,0,0,0-17.768,6.346Q678.682,748.614,684.4,741.316Z"/>
</svg>
