<?xml version="1.0" encoding="UTF-8" standalone="no"?>
<!DOCTYPE svg PUBLIC "-//W3C//DTD SVG 1.1//EN" "http://www.w3.org/Graphics/SVG/1.1/DTD/svg11.dtd">
<svg version="1.1" xmlns="http://www.w3.org/2000/svg" xmlns:xlink="http://www.w3.org/1999/xlink" preserveAspectRatio="xMidYMid meet" viewBox="0 0 640 640" width="640" height="640"><defs><path d="M0 448C0 465.67 14.33 480 32 480C38.4 480 70.4 480 128 480L128 160C70.4 160 38.4 160 32 160C14.33 160 0 174.33 0 192C0 243.2 0 422.4 0 448Z" id="ajCKOu18f"></path><path d="M358.38 191.99C350.11 191.99 345.97 186.48 344.58 184.1C343.19 181.74 340.38 175.45 344.38 168.23C347.71 162.23 374.37 114.21 377.7 108.21C385.02 95.07 385.77 79.62 379.78 65.82C373.8 52.01 361.98 41.99 347.37 38.35C345.02 37.77 326.22 33.07 323.87 32.48C318.16 31.04 312.09 32.87 308.11 37.29C295.35 51.47 193.27 164.87 180.52 179.04C167.28 193.77 160 212.77 160 232.56C160 249.3 160 383.25 160 399.99C160 444.1 195.89 479.99 240 479.99C255.92 479.99 383.25 479.98 399.17 479.98C435.11 479.98 466.84 455.77 476.33 421.13C479.74 405.46 507.07 280.06 510.48 264.38C511.48 260.02 512 255.56 512 251.09C512 218.51 485.48 191.99 452.91 191.99C452.91 191.99 367.83 191.99 358.38 191.99Z" id="fkJVJXUvH"></path></defs><g><g><g><use xlink:href="#ajCKOu18f" opacity="1" fill="#ffffff" fill-opacity="1"></use><g><use xlink:href="#ajCKOu18f" opacity="1" fill-opacity="0" stroke="#000000" stroke-width="1" stroke-opacity="0"></use></g></g><g><use xlink:href="#fkJVJXUvH" opacity="1" fill="#ffffff" fill-opacity="1"></use><g><use xlink:href="#fkJVJXUvH" opacity="1" fill-opacity="0" stroke="#000000" stroke-width="1" stroke-opacity="0"></use></g></g></g></g></svg>