<?xml version="1.0" encoding="UTF-8" standalone="no"?>
<!DOCTYPE svg PUBLIC "-//W3C//DTD SVG 1.1//EN" "http://www.w3.org/Graphics/SVG/1.1/DTD/svg11.dtd">
<svg version="1.1" xmlns="http://www.w3.org/2000/svg" xmlns:xlink="http://www.w3.org/1999/xlink" preserveAspectRatio="xMidYMid meet" viewBox="0 0 640 640" width="640" height="640"><defs><path d="M461.22 35C424.27 35 390.44 46.68 360.65 69.71C345.62 81.34 332.01 95.56 320 112.16C308 95.57 294.37 81.34 279.34 69.71C249.56 46.68 215.73 35 178.78 35C129.36 35 83.9 54.79 50.77 90.72C18.03 126.24 0 174.75 0 227.34C0 281.46 20.17 331.01 63.48 383.27C102.22 430.01 157.9 477.46 222.37 532.41C244.39 551.17 269.35 572.44 295.26 595.1C302.1 601.09 310.89 604.39 320 604.39C329.11 604.39 337.9 601.09 344.73 595.11C370.64 572.45 395.62 551.17 417.64 532.39C482.11 477.46 537.79 430.01 576.53 383.26C619.83 331.01 640 281.46 640 227.33C640 174.75 621.97 126.24 589.23 90.72C556.1 54.79 510.64 35 461.22 35Z" id="cPydQ5b3v"></path></defs><g><g><g><use xlink:href="#cPydQ5b3v" opacity="1" fill="#ffffff" fill-opacity="1"></use><g><use xlink:href="#cPydQ5b3v" opacity="1" fill-opacity="0" stroke="#000000" stroke-width="1" stroke-opacity="0"></use></g></g></g></g></svg>