<?xml version="1.0" encoding="UTF-8" standalone="no"?>
<!DOCTYPE svg PUBLIC "-//W3C//DTD SVG 1.1//EN" "http://www.w3.org/Graphics/SVG/1.1/DTD/svg11.dtd">
<svg version="1.1" xmlns="http://www.w3.org/2000/svg" xmlns:xlink="http://www.w3.org/1999/xlink" preserveAspectRatio="xMidYMid meet" viewBox="0 0 640 640" width="640" height="640"><defs><path d="M348.9 366.5C348.9 366.54 348.9 366.88 348.9 366.92C348.9 375.89 341.63 383.16 332.66 383.16C325.85 383.16 271.32 383.16 264.5 383.16C255.53 383.16 248.27 375.89 248.27 366.92C248.27 366.46 248.27 362.79 248.27 362.34C248.27 242.27 357.92 249.9 357.92 193.68C357.92 169.39 339.88 154.82 310.04 154.82C285.76 154.82 260.95 165.43 238.39 187.13C232.61 192.69 223.58 193.04 217.26 188.1C212.78 184.6 176.91 156.55 172.43 153.04C164.88 147.13 164 135.93 170.68 129.05C208.1 90.47 256.74 67.37 321.14 67.37C423.16 67.37 473.83 122.2 473.83 183.97C473.83 296.4 348.9 288.77 348.9 366.5ZM299.62 572.63C264.92 572.63 236.47 544.17 236.47 509.47C236.47 474.77 264.92 446.32 299.62 446.32C335.02 446.32 362.78 474.77 362.78 509.47C362.78 544.17 335.02 572.63 299.62 572.63Z" id="e4Ou4flmK"></path></defs><g><g><g><use xlink:href="#e4Ou4flmK" opacity="1" fill="#ffffff" fill-opacity="1"></use><g><use xlink:href="#e4Ou4flmK" opacity="1" fill-opacity="0" stroke="#000000" stroke-width="1" stroke-opacity="0"></use></g></g></g></g></svg>