<?xml version="1.0" encoding="UTF-8" standalone="no"?>
<!DOCTYPE svg PUBLIC "-//W3C//DTD SVG 1.1//EN" "http://www.w3.org/Graphics/SVG/1.1/DTD/svg11.dtd">
<svg version="1.1" xmlns="http://www.w3.org/2000/svg" xmlns:xlink="http://www.w3.org/1999/xlink" preserveAspectRatio="xMidYMid meet" viewBox="0 0 640 640" width="640" height="640"><defs><path d="M348.9 367.67C348.9 367.72 348.9 368.05 348.9 368.1C348.9 377.06 341.63 384.33 332.67 384.33C325.85 384.33 271.32 384.33 264.5 384.33C255.54 384.33 248.27 377.06 248.27 368.1C248.27 367.64 248.27 363.97 248.27 363.51C248.27 243.44 357.93 251.08 357.93 194.86C357.93 170.57 339.88 155.99 310.04 155.99C285.76 155.99 260.95 166.61 238.39 188.31C232.61 193.87 223.58 194.22 217.26 189.28C212.78 185.77 176.92 157.72 172.43 154.21C164.88 148.3 164 137.11 170.68 130.22C208.11 91.64 256.74 68.54 321.14 68.54C423.16 68.55 473.83 123.37 473.83 185.14C473.83 297.58 348.9 289.94 348.9 367.67ZM299.63 573.8C264.92 573.8 236.47 545.35 236.47 510.65C236.47 475.94 264.92 447.49 299.63 447.49C335.02 447.49 362.78 475.94 362.78 510.65C362.78 545.35 335.02 573.8 299.63 573.8Z" id="bqYELZmpb"></path></defs><g><g><g><use xlink:href="#bqYELZmpb" opacity="1" fill="#000000" fill-opacity="1"></use><g><use xlink:href="#bqYELZmpb" opacity="1" fill-opacity="0" stroke="#000000" stroke-width="1" stroke-opacity="0"></use></g></g></g></g></svg>